<?xml version="1.0" encoding="UTF-8" standalone="no"?>
<svg width="90px" height="70px" viewBox="0 0 90 70" version="1.1" xmlns="http://www.w3.org/2000/svg" xmlns:xlink="http://www.w3.org/1999/xlink" xmlns:sketch="http://www.bohemiancoding.com/sketch/ns">
    <!-- Generator: Sketch 3.5.2 (25235) - http://www.bohemiancoding.com/sketch -->
    <title>refresh</title>
    <desc>Created with Sketch.</desc>
    <defs></defs>
    <g id="Page-1" stroke="none" stroke-width="1" fill="none" fill-rule="evenodd" sketch:type="MSPage">
        <g id="refresh" sketch:type="MSLayerGroup" fill="#E22544">
            <g id="Group" sketch:type="MSShapeGroup">
                <path d="M27.113,28.215 C25.785,26.853 23.6,26.821 22.237,28.152 L17.93,32.347 C17.839,32.484 17.608,32.693 17.343,32.92 C18.158,19.807 27.888,9.046 41.053,7.04 C51.221,5.489 61.402,9.626 67.623,17.836 C68.305,18.733 69.42,19.186 70.536,19.015 C71.036,18.939 71.516,18.736 71.923,18.428 C72.82,17.746 73.273,16.632 73.105,15.517 C73.028,15.014 72.824,14.535 72.516,14.128 C64.936,4.123 52.526,-0.918 40.129,0.972 C23.946,3.44 11.99,16.75 11.169,32.918 C11.081,32.823 11.006,32.734 10.969,32.664 L6.374,27.949 C5.045,26.589 2.86,26.558 1.498,27.885 C0.133,29.215 0.106,31.399 1.435,32.765 L11.67,43.267 C12.366,43.982 13.298,44.33 14.223,44.307 C15.062,44.286 15.895,43.962 16.545,43.328 L27.049,33.093 C28.414,31.765 28.442,29.58 27.113,28.215 L27.113,28.215 Z M14.342,37.538 C14.383,37.537 14.423,37.534 14.463,37.53 C14.425,37.577 14.386,37.577 14.342,37.538 L14.342,37.538 Z" id="Shape"></path>
                <path d="M88.564,37.401 L78.331,26.898 C77.635,26.185 76.702,25.836 75.777,25.858 C74.938,25.878 74.103,26.205 73.455,26.837 L62.949,37.072 C61.585,38.403 61.556,40.588 62.886,41.952 C64.215,43.312 66.399,43.347 67.761,42.015 L72.071,37.819 C72.155,37.692 72.361,37.502 72.602,37.295 C71.694,50.311 61.996,60.965 48.903,62.962 C38.734,64.511 28.553,60.375 22.334,52.166 C21.652,51.268 20.537,50.816 19.422,50.986 C18.922,51.061 18.441,51.264 18.034,51.573 C17.136,52.254 16.683,53.37 16.853,54.485 C16.93,54.986 17.134,55.466 17.441,55.873 C25.022,65.878 37.431,70.919 49.829,69.028 C65.972,66.566 77.908,53.312 78.778,37.196 C78.892,37.311 78.987,37.421 79.031,37.504 L83.626,42.219 C84.956,43.579 87.14,43.61 88.5,42.283 C89.867,40.952 89.894,38.768 88.564,37.401 L88.564,37.401 Z" id="Shape"></path>
            </g>
        </g>
    </g>
</svg>